<svg xmlns="http://www.w3.org/2000/svg">
    <symbol id="burger" viewBox="0 0 16 16">
        <path id="burger" d="M15.5714 3C15.7857 3 16 2.82143 16 2.57143V1.42857C16 1.21429 15.7857 1 15.5714 1H0.428571C0.178571 1 0 1.21429 0 1.42857V2.57143C0 2.82143 0.178571 3 0.428571 3H15.5714ZM15.5714 8.71429C15.7857 8.71429 16 8.53572 16 8.28572V7.14286C16 6.92857 15.7857 6.71429 15.5714 6.71429H0.428571C0.178571 6.71429 0 6.92857 0 7.14286V8.28572C0 8.53572 0.178571 8.71429 0.428571 8.71429H15.5714ZM15.5714 14.4286C15.7857 14.4286 16 14.25 16 14V12.8571C16 12.6429 15.7857 12.4286 15.5714 12.4286H0.428571C0.178571 12.4286 0 12.6429 0 12.8571V14C0 14.25 0.178571 14.4286 0.428571 14.4286H15.5714Z"/>
    </symbol>
</svg>
