<svg xmlns="http://www.w3.org/2000/svg">
    <symbol id="checked" viewBox="0 0 16 16">
        <path id="checked" d="M15.8571 4.82143L14.8571 3.82143C14.7857 3.75 14.6786 3.71429 14.5357 3.71429C14.4286 3.71429 14.3571 3.75 14.2857 3.82143L5.07143 13.0357L1.67857 9.64286C1.60714 9.57143 1.53571 9.53571 1.42857 9.53571C1.28571 9.53571 1.17857 9.57143 1.10714 9.64286L0.107143 10.6429C0.0357143 10.7143 0 10.8214 0 10.9643C0 11.0714 0.0357143 11.1786 0.107143 11.2143L4.78571 15.9286C4.85714 16 4.96429 16 5.07143 16C5.21429 16 5.28571 16 5.35714 15.9286L15.8571 5.42857C15.9286 5.32143 15.9643 5.25 15.9643 5.10714C16 5 15.9286 4.89286 15.8571 4.82143ZM4.67857 9.07143C4.78571 9.14286 4.89286 9.14286 5 9.14286C5.14286 9.14286 5.21429 9.14286 5.28571 9.07143L12.6071 1.75C12.6786 1.64286 12.75 1.53571 12.75 1.42857C12.75 1.32143 12.6786 1.21429 12.6071 1.14286L11.6071 0.107143C11.5357 0.0357143 11.4286 0 11.2857 0C11.1786 0 11.0714 0.0357143 11 0.107143L5 6.17857L2.85714 4C2.78571 3.92857 2.67857 3.85714 2.57143 3.85714C2.46429 3.85714 2.35714 3.92857 2.25 4L1.25 5C1.17857 5.07143 1.14286 5.17857 1.14286 5.32143C1.14286 5.42857 1.17857 5.53571 1.25 5.60714L4.67857 9.07143Z"/>
    </symbol>
</svg>
