<svg xmlns="http://www.w3.org/2000/svg">
    <symbol id="delete" viewBox="0 0 16 16">
        <path id="delete" d="M9.20408 13H9.93878C10.1224 13 10.3061 12.8438 10.3061 12.625V5.875C10.3061 5.6875 10.1224 5.5 9.93878 5.5H9.20408C8.9898 5.5 8.83673 5.6875 8.83673 5.875V12.625C8.83673 12.8438 8.9898 13 9.20408 13ZM14.2245 2.5H11.6837L10.6429 0.75C10.398 0.34375 9.84694 0 9.38776 0H6.29592C5.83673 0 5.28571 0.34375 5.04082 0.75L4 2.5H1.4898C1.21429 2.5 1 2.75 1 3V3.5C1 3.78125 1.21429 4 1.4898 4H1.97959V14.5C1.97959 15.3438 2.62245 16 3.44898 16H12.2653C13.0612 16 13.7347 15.3438 13.7347 14.5V4H14.2245C14.4694 4 14.7143 3.78125 14.7143 3.5V3C14.7143 2.75 14.4694 2.5 14.2245 2.5ZM6.23469 1.59375C6.26531 1.5625 6.35714 1.5 6.38775 1.5H6.41837H9.29592C9.32653 1.5 9.41837 1.5625 9.44898 1.59375L9.96939 2.5H5.71429L6.23469 1.59375ZM12.2653 14.5H3.44898V4H12.2653V14.5ZM5.77551 13H6.5102C6.69388 13 6.87755 12.8438 6.87755 12.625V5.875C6.87755 5.6875 6.69388 5.5 6.5102 5.5H5.77551C5.56122 5.5 5.40816 5.6875 5.40816 5.875V12.625C5.40816 12.8438 5.56122 13 5.77551 13Z"/>
    </symbol>
</svg>
