<svg xmlns="http://www.w3.org/2000/svg">
    <symbol id="directory" viewBox="0 0 16 16">
        <path id="directory" d="M15.9792 13.3387L12.8111 1.5558C12.7277 1.19453 12.3665 0.91663 11.9496 1.02779L11.505 1.16674C11.3383 1.19453 11.1993 1.33348 11.0604 1.5558C10.6713 1.75033 9.61528 2.02822 9.17065 2.05601C8.94833 1.94485 8.7538 1.88927 8.58706 1.94485L8.17021 2.05601C8.08684 2.0838 8.03126 2.11159 8.00347 2.13938V1.88927C8.00347 1.41685 7.58663 1 7.1142 1H5.33565C4.83543 1 4.44637 1.41685 4.44637 1.88927V3.66782H8.00347L10.8102 14.7004C10.8936 15.0617 11.2549 15.3396 11.6995 15.2284L12.1164 15.0894C12.2831 15.0617 12.4498 14.9227 12.561 14.7004C12.9501 14.5059 14.0061 14.228 14.4507 14.2002C14.673 14.3113 14.8676 14.3669 15.0343 14.3113L15.4789 14.2002C15.8958 14.089 16.0625 13.6722 15.9792 13.3387ZM12.2275 13.1442L9.67086 3.58446L11.3938 3.11203L13.9505 12.6717L12.2275 13.1442ZM0 11.6713H3.5571V4.5571H0V11.6713ZM2.66782 1H0.889275C0.389058 1 0 1.41685 0 1.88927V3.66782H3.5571V1.88927C3.5571 1.41685 3.14025 1 2.66782 1ZM0 14.3391C0 14.8393 0.389058 15.2284 0.889275 15.2284H2.66782C3.14025 15.2284 3.5571 14.8393 3.5571 14.3391V12.5606H0V14.3391ZM4.44637 11.6713H8.00347V4.5571H4.44637V11.6713ZM4.44637 14.3391C4.44637 14.8393 4.83543 15.2284 5.33565 15.2284H7.1142C7.58663 15.2284 8.00347 14.8393 8.00347 14.3391V12.5606H4.44637V14.3391Z"/>
    </symbol>
</svg>
