<svg xmlns="http://www.w3.org/2000/svg">
    <symbol id="ellipsis-h" viewBox="0 0 16 16">
        <path id="ellipsis-h" d="M9.68421 7.68421C9.68421 6.78947 8.89474 6 8 6C7.05263 6 6.31579 6.78947 6.31579 7.68421C6.31579 8.63158 7.05263 9.36842 8 9.36842C8.89474 9.36842 9.68421 8.63158 9.68421 7.68421ZM14.3158 6C13.3684 6 12.6316 6.78947 12.6316 7.68421C12.6316 8.63158 13.3684 9.36842 14.3158 9.36842C15.2105 9.36842 16 8.63158 16 7.68421C16 6.78947 15.2105 6 14.3158 6ZM1.68421 6C0.736842 6 0 6.78947 0 7.68421C0 8.63158 0.736842 9.36842 1.68421 9.36842C2.57895 9.36842 3.36842 8.63158 3.36842 7.68421C3.36842 6.78947 2.57895 6 1.68421 6Z"/>
    </symbol>
</svg>
