<svg xmlns="http://www.w3.org/2000/svg">
    <symbol id="history" viewBox="0 0 16 16">
        <path id="history" d="M16 7.99953C15.9673 3.58044 12.3429 0 7.90204 0C5.64898 0 3.59184 0.935429 2.12245 2.38696L0.653061 0.935429C0.42449 0.709636 0 0.870917 0 1.22573V5.29001C0 5.51581 0.163265 5.67709 0.391837 5.67709H4.57143C4.93061 5.67709 5.09388 5.25776 4.86531 5.03196L3.26531 3.48367C4.44082 2.29019 6.07347 1.5483 7.90204 1.5483C11.4939 1.5483 14.4327 4.45135 14.4327 7.99953C14.4327 11.58 11.4939 14.4508 7.90204 14.4508C6.20408 14.4508 4.70204 13.8379 3.52653 12.838C3.39592 12.7089 3.13469 12.7089 3.00408 12.838L2.44898 13.3863C2.28571 13.5476 2.28571 13.8056 2.44898 13.9669C3.88571 15.2249 5.81224 16.0313 7.90204 15.9991C12.3429 15.9991 16 12.4186 16 7.99953ZM10.5143 10.9026L11.0041 10.2897C11.102 10.0962 11.0694 9.87039 10.9061 9.74137L8.68571 8.12856V3.48367C8.68571 3.29013 8.4898 3.09659 8.29388 3.09659H7.5102C7.28163 3.09659 7.11837 3.29013 7.11837 3.48367V8.93496L9.99184 10.9994C10.1551 11.1284 10.4163 11.0961 10.5143 10.9026Z"/>
    </symbol>
</svg>
