<svg xmlns="http://www.w3.org/2000/svg">
    <symbol id="notification" viewBox="0 0 16 16">
        <path id="notification" d="M7.72284 16C8.7724 16 9.61204 15.125 9.61204 14H5.80365C5.80365 15.125 6.6433 16 7.72284 16ZM14.1701 11.3438C13.6004 10.6875 12.4908 9.71875 12.4908 6.5C12.4908 4.09375 10.8715 2.15625 8.65245 1.65625V1C8.65245 0.46875 8.23263 0 7.72284 0C7.18307 0 6.76325 0.46875 6.76325 1V1.65625C4.54419 2.15625 2.92487 4.09375 2.92487 6.5C2.92487 9.71875 1.81534 10.6875 1.24558 11.3438C1.06566 11.5312 0.975695 11.7812 1.00568 12C1.00568 12.5312 1.36553 13 1.96528 13H13.4504C14.0502 13 14.41 12.5312 14.44 12C14.44 11.7812 14.35 11.5312 14.1701 11.3438Z"/>
    </symbol>
</svg>
