<svg xmlns="http://www.w3.org/2000/svg">
    <symbol id="settings" viewBox="0 0 16 16">
        <path id="settings" d="M15.1211 9.91527L13.7341 9.14109C13.8954 8.36691 13.8954 7.625 13.7341 6.85082L15.1211 6.07665C15.2824 5.97987 15.3469 5.78633 15.2824 5.62504C14.9276 4.46378 14.3147 3.43155 13.5405 2.5606C13.4115 2.43157 13.218 2.39931 13.0567 2.49609L11.6696 3.27026C11.089 2.7864 10.4438 2.39931 9.73417 2.14126V0.560648C9.73417 0.399362 9.60514 0.238075 9.4116 0.205818C8.21808 -0.0844978 7.02456 -0.0522405 5.89555 0.205818C5.70201 0.238075 5.60523 0.399362 5.60523 0.560648V2.14126C4.86332 2.39931 4.21817 2.7864 3.63754 3.30252L2.25048 2.49609C2.08919 2.39931 1.89565 2.43157 1.76662 2.5606C0.992441 3.43155 0.379553 4.46378 0.0247222 5.62504C-0.0397924 5.78633 0.0247222 5.97987 0.186009 6.07665L1.57307 6.85082C1.44404 7.625 1.44404 8.36691 1.57307 9.14109L0.186009 9.91527C0.0247222 10.012 -0.0397924 10.2056 0.0247222 10.3669C0.379553 11.5281 0.992441 12.5604 1.76662 13.4313C1.89565 13.5603 2.08919 13.5926 2.25048 13.4958L3.63754 12.7216C4.21817 13.2055 4.86332 13.5926 5.60523 13.8507V15.4313C5.60523 15.5925 5.73426 15.7538 5.89555 15.8183C7.08907 16.0764 8.28259 16.0442 9.4116 15.8183C9.60514 15.7538 9.73417 15.5925 9.73417 15.4313V13.8507C10.4438 13.5926 11.089 13.2055 11.6696 12.7216L13.0567 13.4958C13.218 13.5926 13.4115 13.5603 13.5405 13.4313C14.347 12.5604 14.9276 11.5281 15.3147 10.3669C15.3469 10.2056 15.2824 10.012 15.1211 9.91527ZM7.6697 10.5604C6.21812 10.5604 5.08912 9.43141 5.08912 7.97983C5.08912 6.56051 6.21812 5.39924 7.6697 5.39924C9.08902 5.39924 10.2503 6.56051 10.2503 7.97983C10.2503 9.43141 9.08902 10.5604 7.6697 10.5604Z"/>
    </symbol>
</svg>
