<svg xmlns="http://www.w3.org/2000/svg">
    <symbol id="sort" viewBox="0 0 16 16">
        <path id="sort" d="M9.29032 12.0645H7.22581C6.93548 12.0645 6.70968 12.3226 6.70968 12.5806V13.0968C6.70968 13.3871 6.93548 13.6129 7.22581 13.6129H9.29032C9.54839 13.6129 9.80645 13.3871 9.80645 13.0968V12.5806C9.80645 12.3226 9.54839 12.0645 9.29032 12.0645ZM0.387097 4.06452H1.80645V14.9032C1.80645 15.1935 2.03226 15.4194 2.32258 15.4194H2.83871C3.09677 15.4194 3.35484 15.1935 3.35484 14.9032V4.06452H4.77419C4.96774 4.06452 5.16129 3.90323 5.16129 3.67742C5.16129 3.6129 5.09677 3.48387 5.03226 3.41935L2.83871 1.09677C2.77419 1.03226 2.64516 1 2.58065 1C2.48387 1 2.35484 1.03226 2.29032 1.09677L0.0967742 3.41935C0.0322581 3.48387 0 3.6129 0 3.67742C0 3.90323 0.16129 4.06452 0.387097 4.06452ZM13.4194 5.87097H7.22581C6.93548 5.87097 6.70968 6.12903 6.70968 6.3871V6.90323C6.70968 7.19355 6.93548 7.41935 7.22581 7.41935H13.4194C13.6774 7.41935 13.9355 7.19355 13.9355 6.90323V6.3871C13.9355 6.12903 13.6774 5.87097 13.4194 5.87097ZM15.4839 2.77419H7.22581C6.93548 2.77419 6.70968 3.03226 6.70968 3.29032V3.80645C6.70968 4.09677 6.93548 4.32258 7.22581 4.32258H15.4839C15.7419 4.32258 16 4.09677 16 3.80645V3.29032C16 3.03226 15.7419 2.77419 15.4839 2.77419ZM11.3548 8.96774H7.22581C6.93548 8.96774 6.70968 9.22581 6.70968 9.48387V10C6.70968 10.2903 6.93548 10.5161 7.22581 10.5161H11.3548C11.6129 10.5161 11.871 10.2903 11.871 10V9.48387C11.871 9.22581 11.6129 8.96774 11.3548 8.96774Z"/>
    </symbol>
</svg>
